<svg xmlns="http://www.w3.org/2000/svg" xmlns:xlink="http://www.w3.org/1999/xlink" version="1.1" x="0px" y="0px" width="500px" height="500px" viewBox="0 0 500 500" style="enable-background:new 0 0 500 500;" xml:space="preserve">
<style type="text/css">
    .st0{fill:#FFFFFF;}
    .st1{fill:#F0F0F0;}
    .st2{fill:#E0E0E0;}
    .st3{fill:#FAFAFA;}
    .st4{fill:#E0E0E0;enable-background:new    ;}
    .st5{opacity:0.3;fill:#EBEBEB;}
    .st6{display:none;}
    .st7{display:inline;}
    .st8{fill:#407BFF;}
    .st9{opacity:0.9;fill:#FFFFFF;enable-background:new    ;}
    .st10{fill:#F5F5F5;}
    .st11{opacity:0.1;enable-background:new    ;}
    .st12{opacity:0.6;fill:#FFFFFF;enable-background:new    ;}
    .st13{opacity:0.3;enable-background:new    ;}
    .st14{opacity:0.3;fill:#FFFFFF;enable-background:new    ;}
    .st15{opacity:0.2;enable-background:new    ;}
    .st16{fill:#FFFFFF;}
    .st17{fill:none;}
    .st18{opacity:0.2;fill:#407BFF;enable-background:new    ;}
    .st19{opacity:0.5;fill:#FFFFFF;enable-background:new    ;}
    .st20{fill:#EEC1BB;}
    .st21{fill:#263238;}
    .st22{fill:#D4827D;}
    .st23{fill:none;stroke:#263238;stroke-width:0.708;stroke-linecap:round;stroke-linejoin:round;stroke-miterlimit:10;}
    .st24{fill:none;stroke:#263238;stroke-width:0.4885;stroke-linecap:round;stroke-linejoin:round;stroke-miterlimit:10;}
    .st25{opacity:0.5;fill:#FFFFFF;}
    .st26{opacity:0.2;}
    .st27{opacity:0.5;enable-background:new    ;}
</style>
<g id="Background_Complete">
    <g>
        <rect y="382.4" class="st0" width="500" height="0.3"/>
        <rect x="416.8" y="398.5" class="st0" width="33.1" height="0.3"/>
        <rect x="322.5" y="401.2" class="st0" width="8.7" height="0.3"/>
        <rect x="396.6" y="389.2" class="st0" width="19.2" height="0.3"/>
        <rect x="52.5" y="390.9" class="st0" width="43.2" height="0.3"/>
        <rect x="104.6" y="390.9" class="st0" width="6.3" height="0.3"/>
        <rect x="131.5" y="395.1" class="st0" width="93.7" height="0.3"/>
        <path class="st0" d="M237,337.8H43.9c-3.1,0-5.7-2.6-5.7-5.7V60.7c0-3.1,2.6-5.7,5.7-5.7H237c3.1,0,5.7,2.6,5.7,5.7v271.4             C242.7,335.2,240.2,337.8,237,337.8z M43.9,55.2c-3,0-5.5,2.4-5.5,5.5v271.4c0,3,2.4,5.5,5.5,5.5H237c3,0,5.5-2.4,5.5-5.5V60.7             c0-3-2.4-5.5-5.5-5.5H43.9z"/>
        <path class="st0" d="M453.3,337.8H260.2c-3.1,0-5.7-2.6-5.7-5.7V60.7c0-3.1,2.6-5.7,5.7-5.7h193.1c3.1,0,5.7,2.6,5.7,5.7v271.4             C459,335.2,456.5,337.8,453.3,337.8z M260.2,55.2c-3,0-5.5,2.4-5.5,5.5v271.4c0,3,2.4,5.5,5.5,5.5h193.1c3,0,5.5-2.4,5.5-5.5V60.7             c0-3-2.4-5.5-5.5-5.5H260.2z"/>
    </g>
    <g>
        <g>
            <path class="st1" d="M418.3,109.7c0-3.2-2.6-5.9-5.9-5.9c-0.6,0-1.2,0.1-1.7,0.2c0.1-0.6,0.1-1.2,0.1-1.8                 c0-6.9-5.6-12.4-12.4-12.4c-0.8,0-1.5,0.1-2.3,0.2c-1.9-3.1-5.3-5.2-9.3-5.2c-5.9,0-10.8,4.8-10.9,10.7c-0.1,0-0.1,0-0.2,0                 c-5.5,0-10,4.5-10,10c0,5.5,4.5,10,10,10h36.8l0,0C415.7,115.4,418.3,112.9,418.3,109.7z"/>
            <polygon class="st2" points="387.4,110.1 387.4,121.6 396.7,121.6 396.7,110.1 404.3,110.1 392.1,99.8 379.8,110.1             "/>
        </g>
        <g>
            
                <rect x="51.1" y="186" transform="matrix(0.9764 -0.2158 0.2158 0.9764 -45.0919 25.812)" class="st3" width="89.1" height="66.7"/>
            
                <rect x="55.6" y="190.3" transform="matrix(0.9764 -0.2158 0.2158 0.9764 -45.0596 25.8277)" class="st4" width="80.2" height="57.8"/>
            <polygon class="st0" points="139.5,231.2 141.2,238.8 62.8,256.2 56.7,228.7 69.8,211 99,229.1 109.6,217          "/>
            <g>
                <path class="st0" d="M118.9,200.1c0.8,3.5-1.4,6.9-4.9,7.7c-3.5,0.8-6.9-1.4-7.7-4.9c-0.8-3.5,1.4-6.9,4.9-7.7                     C114.7,194.4,118.1,196.6,118.9,200.1z"/>
                <path class="st5" d="M118.9,200.1c0.8,3.5-1.4,6.9-4.9,7.7c-3.5,0.8-6.9-1.4-7.7-4.9c-0.8-3.5,1.4-6.9,4.9-7.7                     C114.7,194.4,118.1,196.6,118.9,200.1z"/>
            </g>
        </g>
        <g>
            <g>
                
                    <rect x="90.2" y="304.9" transform="matrix(0.963 0.2697 -0.2697 0.963 96.3649 -19.1711)" class="st0" width="55.5" height="72.4"/>
                <g>
                    
                        <rect x="105" y="316.1" transform="matrix(0.9629 0.2697 -0.2697 0.9629 90.3783 -21.7707)" class="st2" width="38.9" height="3.9"/>
                    
                        <rect x="103.1" y="322.7" transform="matrix(0.9629 0.2697 -0.2697 0.9629 92.089 -21.0279)" class="st2" width="38.9" height="3.9"/>
                    
                        <rect x="101.3" y="329.3" transform="matrix(0.9629 0.2697 -0.2697 0.9629 93.7997 -20.2853)" class="st2" width="38.9" height="3.9"/>
                    
                        <rect x="99.4" y="335.9" transform="matrix(0.9629 0.2697 -0.2697 0.9629 95.5107 -19.5425)" class="st2" width="38.9" height="3.9"/>
                    
                        <rect x="97.6" y="342.5" transform="matrix(0.9629 0.2697 -0.2697 0.9629 97.2215 -18.7998)" class="st2" width="38.9" height="3.9"/>
                    
                        <rect x="95.7" y="349.1" transform="matrix(0.9629 0.2697 -0.2697 0.9629 98.9319 -18.0571)" class="st2" width="38.9" height="3.9"/>
                    
                        <rect x="93.9" y="355.7" transform="matrix(0.9629 0.2697 -0.2697 0.9629 100.6427 -17.3144)" class="st2" width="38.9" height="3.9"/>
                    
                        <rect x="92.3" y="360.4" transform="matrix(0.9629 0.2697 -0.2697 0.9629 101.612 -14.8599)" class="st2" width="25.2" height="3.9"/>
                </g>
            </g>
            <g>
                
                    <rect x="77.2" y="276.7" transform="matrix(0.963 0.2697 -0.2697 0.963 88.2732 -16.6917)" class="st3" width="55.5" height="72.4"/>
                <g>
                    
                        <rect x="91.9" y="287.9" transform="matrix(0.9629 0.2697 -0.2697 0.9629 82.2866 -19.2913)" class="st2" width="38.9" height="3.9"/>
                    
                        <rect x="90.1" y="294.5" transform="matrix(0.9629 0.2697 -0.2697 0.9629 83.9974 -18.5485)" class="st2" width="38.9" height="3.9"/>
                    
                        <rect x="88.2" y="301.1" transform="matrix(0.9629 0.2697 -0.2697 0.9629 85.7079 -17.8058)" class="st2" width="38.9" height="3.9"/>
                    
                        <rect x="86.4" y="307.7" transform="matrix(0.9629 0.2697 -0.2697 0.9629 87.4189 -17.0631)" class="st2" width="38.9" height="3.9"/>
                    
                        <rect x="84.5" y="314.3" transform="matrix(0.9629 0.2697 -0.2697 0.9629 89.1296 -16.3204)" class="st2" width="38.9" height="3.9"/>
                    
                        <rect x="82.7" y="320.9" transform="matrix(0.9629 0.2697 -0.2697 0.9629 90.8401 -15.5777)" class="st2" width="38.9" height="3.9"/>
                    
                        <rect x="80.8" y="327.5" transform="matrix(0.9629 0.2697 -0.2697 0.9629 92.5509 -14.8349)" class="st2" width="38.9" height="3.9"/>
                    
                        <rect x="79.2" y="332.2" transform="matrix(0.9629 0.2697 -0.2697 0.9629 93.5187 -12.3805)" class="st2" width="25.2" height="3.9"/>
                </g>
            </g>
        </g>
        <g>
            <g>
                <path class="st2" d="M443.2,180.5c-5.7-4.4-13.4-19.1-13.3-19.1l-7.5,51.5c0.2-1.2-4.4-2.5-7.4-3c-7.4-1.1-13.8,2.1-14.5,7.1                     c-0.7,5,4.8,9.9,12.2,11c7.4,1.1,13.7-2.2,14.4-7.2c0.1-0.8-0.5-1.6-0.4-2.3l5.8-39.7c0,0,3.9,5.3,10.6,8.8                     c5.5,2.8,7.3,10.6,7.3,10.6S452.1,187.3,443.2,180.5z"/>
            </g>
            <g>
                <path class="st2" d="M387.1,205.4c-3.9-3.1-9.2-13.2-9.2-13.2l-5.2,35.5c0.1-0.8-3-1.8-5.1-2.1c-5.1-0.7-9.5,1.5-10,4.9                     c-0.5,3.5,3.3,6.9,8.4,7.6c5.1,0.7,9.4-1.5,10-4.9c0.1-0.5-0.3-1.1-0.2-1.6l4-27.4c0,0,2.7,3.7,7.3,6.1c3.8,1.9,5,7.3,5,7.3                     S393.2,210.1,387.1,205.4z"/>
            </g>
        </g>
    </g>
</g>
<g id="Backgorund_Simple" class="st6">
    <g class="st7">
        <path class="st8" d="M108.5,108.1c0.8-0.5,1.7-1,2.6-1.5c20.4-11.3,46.2-10,67.5-0.5s38.6,26.3,52.8,44.9             c14.2,18.5,25.6,39,38.5,58.4c5,7.6,10.4,15.2,18.2,20c18,11,40.8,2.9,61.7,0.3c13.7-1.7,28.2-0.8,40.6,5.4             c43.7,21.6,19.8,78.9-8,103.1c-20.4,17.7-46.7,27.4-73.3,32.1c-56.6,9.9-117.5-2.3-163.6-36.5c-46.1-34.3-75.9-90.9-74-148.3             C72.3,155.6,83.4,123.7,108.5,108.1z"/>
        <path class="st9" d="M108.5,108.1c0.8-0.5,1.7-1,2.6-1.5c20.4-11.3,46.2-10,67.5-0.5s38.6,26.3,52.8,44.9             c14.2,18.5,25.6,39,38.5,58.4c5,7.6,10.4,15.2,18.2,20c18,11,40.8,2.9,61.7,0.3c13.7-1.7,28.2-0.8,40.6,5.4             c43.7,21.6,19.8,78.9-8,103.1c-20.4,17.7-46.7,27.4-73.3,32.1c-56.6,9.9-117.5-2.3-163.6-36.5c-46.1-34.3-75.9-90.9-74-148.3             C72.3,155.6,83.4,123.7,108.5,108.1z"/>
    </g>
</g>
<g id="Shadow_1_">
    <ellipse id="_x3C_Path_x3E__359_" class="st10" cx="250" cy="416.2" rx="193.9" ry="11.3"/>
</g>
<g id="Gears">
</g>
<g id="Screen">
    <g>
        <path class="st11" d="M351.8,87.3v303.1c0,2.5-2,4.4-4.5,4.4H206.2c-1.1,0-2.1-0.4-2.8-1.1c-0.7-0.7-1.2-1.8-1.2-2.9V86.9             c0-2,1.5-3.7,3.4-3.7h40.1c1.1,0,2.2,0.7,2.6,1.8l1.7,4.1c0.4,1.1,1.4,1.8,2.6,1.8h49c1.1,0,2.2-0.7,2.6-1.8l1.7-4.1             c0.4-1.1,1.4-1.8,2.6-1.8h39.5C350.1,83.2,351.8,85.1,351.8,87.3z"/>
        <g>
            <path class="st8" d="M327.9,94.9v288c0,2.4-1.9,4.2-4.3,4.2h-134c-1.1,0-2-0.4-2.7-1.1c-0.7-0.7-1.1-1.7-1.1-2.8V94.5                 c0-1.9,1.4-3.5,3.3-3.5h38.1c1.1,0,2,0.7,2.5,1.7l1.6,3.9c0.4,1,1.4,1.7,2.5,1.7h46.6c1.1,0,2-0.7,2.5-1.7l1.6-3.9                 c0.4-1,1.4-1.7,2.5-1.7h37.5C326.3,91,327.9,92.8,327.9,94.9z"/>
            <g>
                <g>
                    
                        <rect x="203.5" y="99.9" transform="matrix(-1 -1.224647e-16 1.224647e-16 -1 408.9335 202.5258)" class="st12" width="2" height="2.6"/>
                    
                        <rect x="200.2" y="99.1" transform="matrix(-1 -1.224647e-16 1.224647e-16 -1 402.4791 201.6452)" class="st12" width="2" height="3.5"/>
                    
                        <rect x="197" y="98.2" transform="matrix(-1 -1.224647e-16 1.224647e-16 -1 396.0247 200.7645)" class="st12" width="2" height="4.4"/>
                    
                        <rect x="193.8" y="97.3" transform="matrix(-1 -1.224647e-16 1.224647e-16 -1 389.5703 199.8838)" class="st12" width="2" height="5.3"/>
                </g>
                <g>
                    <rect x="308.6" y="99" class="st12" width="1.2" height="2.6"/>
                    
                        <rect x="310.6" y="98" transform="matrix(-1 -1.224647e-16 1.224647e-16 -1 630.4949 200.599)" class="st12" width="9.4" height="4.6"/>
                </g>
            </g>
            <g>
                <path class="st13" d="M211.8,250.5h90.1c2.8,0,5.1,2.3,5.1,5.1v0c0,2.8-2.3,5.1-5.1,5.1h-90.1c-2.8,0-5.1-2.3-5.1-5.1v0                     C206.7,252.8,209,250.5,211.8,250.5z"/>
                <path class="st8" d="M260.9,251.5c2.3,0,4.2,1.9,4.2,4.2c0,2.3-1.9,4.2-4.2,4.2h-49.1c-2.3,0-4.2-1.9-4.2-4.2                     c0-2.3,1.9-4.2,4.2-4.2H260.9z"/>
                <path class="st14" d="M260.9,251.5c2.3,0,4.2,1.9,4.2,4.2c0,2.3-1.9,4.2-4.2,4.2h-49.1c-2.3,0-4.2-1.9-4.2-4.2                     c0-2.3,1.9-4.2,4.2-4.2H260.9z"/>
            </g>
            <path class="st15" d="M281.1,284.6h-44.4c-2.3,0-4.1-1.9-4.1-4.1v-6.7c0-2.3,1.9-4.1,4.1-4.1h44.4c2.3,0,4.1,1.9,4.1,4.1v6.7                 C285.3,282.7,283.4,284.6,281.1,284.6z"/>
            <g class="st13">
                <path class="st16" d="M292.6,340.9h-71.5c-0.7,0-1.3-0.6-1.3-1.3l0,0c0-0.7,0.6-1.3,1.3-1.3h71.5c0.7,0,1.3,0.6,1.3,1.3l0,0                     C293.9,340.3,293.3,340.9,292.6,340.9z"/>
                <path class="st16" d="M301.7,348.5H212c-0.7,0-1.3-0.6-1.3-1.3l0,0c0-0.7,0.6-1.3,1.3-1.3h89.7c0.7,0,1.3,0.6,1.3,1.3l0,0                     C303,347.9,302.4,348.5,301.7,348.5z"/>
                <path class="st16" d="M283.5,356.1h-53.3c-0.7,0-1.3-0.6-1.3-1.3l0,0c0-0.7,0.6-1.3,1.3-1.3h53.3c0.7,0,1.3,0.6,1.3,1.3l0,0                     C284.8,355.5,284.2,356.1,283.5,356.1z"/>
                <path class="st16" d="M301.7,371.3H212c-0.7,0-1.3-0.6-1.3-1.3l0,0c0-0.7,0.6-1.3,1.3-1.3h89.7c0.7,0,1.3,0.6,1.3,1.3l0,0                     C303,370.7,302.4,371.3,301.7,371.3z"/>
            </g>
            <g class="st11">
                <path class="st16" d="M249.7,98.3l-40.9,153.2v0l-0.5,1.7v0l-0.7,2.8v0l-0.5,1.7l-21.4,80v-96.8l40-149.9h1.3                     c1.1,0,2,0.7,2.5,1.7l1.6,3.9c0.4,1,1.4,1.7,2.5,1.7H249.7z"/>
                <polygon class="st16" points="327.9,176.5 327.9,273.4 302.4,368.9 301.8,371.3 297.6,387 271.7,387 275.9,371.3 276.6,368.7                      280,356.1 280.7,353.5 282,348.5 282.7,345.9 284,340.9 284.7,338.3 306,258.7 306,258.7 307,255 307,255               "/>
                <path class="st17" d="M263.7,98.3l-40.7,152.3l-0.2,0.9l-2.2,8.3l-0.2,0.9l-33.4,125.2c-0.7-0.7-1.1-1.7-1.1-2.8v-14.7                     l28.8-107.7l0.2-0.9l2.2-8.3l0.2-0.9l40.7-152.3H263.7z"/>
            </g>
            <g>
                <path class="st16" d="M240,136.1c-0.3-1-0.8-2.2-2.2-2.2c-0.9,0-1.5,0.7-1.5,1.6c0,0.9,0.6,1.4,2,2.1c1.7,0.8,2.8,1.7,2.8,3.3                     c0,1.9-1.6,3.3-3.9,3.3c-1,0-1.9-0.3-2.7-0.5c-0.1-0.4-0.4-2-0.5-2.8l0.6-0.1c0.3,1,1.2,2.8,2.8,2.8c1,0,1.6-0.6,1.6-1.6                     c0-0.9-0.6-1.5-1.9-2.2c-1.7-0.9-2.8-1.7-2.8-3.4c0-1.7,1.3-3,3.7-3c1.1,0,1.9,0.2,2.3,0.3c0.1,0.6,0.2,1.4,0.3,2.4L240,136.1z"/>
                <path class="st16" d="M246.6,143.8v-0.5c0.7-0.1,0.7-0.2,0.7-1.3v-2.7c0-1.1-0.6-1.5-1.1-1.5c-0.4,0-0.8,0.2-1.2,0.5v3.9                     c0,1,0.1,1,0.7,1.1v0.5H242v-0.5c0.8-0.1,0.9-0.2,0.9-1.2v-3.3c0-1-0.1-1-0.8-1.2v-0.5c0.9-0.1,2-0.3,2.9-0.6c0,0.2,0,0.8,0,1.2                     c0.3-0.2,0.7-0.5,1-0.7c0.5-0.3,0.8-0.4,1.2-0.4c1.3,0,2.1,0.9,2.1,2.6v3c0,1,0.1,1,0.9,1.2v0.5H246.6z"/>
                <path class="st16" d="M257.5,142.3c-1,1.4-2.3,1.8-2.9,1.8c-2.1,0-3.4-1.6-3.4-3.5c0-1.1,0.5-2.2,1.2-2.9                     c0.7-0.7,1.6-1.1,2.5-1.1c1.6,0,2.7,1.3,2.6,2.6c0,0.3,0,0.5-0.2,0.6c-0.3,0.1-2.6,0.2-4.1,0.3c0.1,1.7,1,2.6,2.2,2.6                     c0.6,0,1.2-0.2,1.8-0.7L257.5,142.3z M254.6,137.2c-0.6,0-1.2,0.8-1.3,2c0.7,0,1.3,0,1.9,0c0.2,0,0.3,0,0.3-0.3                     C255.6,138.1,255.2,137.2,254.6,137.2z"/>
                <path class="st16" d="M263.9,144c-0.4,0-0.8-0.1-1-0.3c-0.2-0.2-0.3-0.4-0.4-0.6c-0.6,0.4-1.4,0.9-1.7,0.9                     c-1.4,0-2.2-1.1-2.2-2.1c0-0.8,0.4-1.2,1.2-1.6c0.9-0.4,2.2-0.7,2.6-1.1v-0.7c0-0.8-0.3-1.3-1-1.3c-0.3,0-0.5,0.1-0.6,0.3                     c-0.2,0.3-0.3,0.6-0.4,1.1c-0.1,0.4-0.4,0.5-0.7,0.5c-0.4,0-0.9-0.4-0.9-0.8c0-0.3,0.2-0.5,0.6-0.8c0.7-0.5,1.7-0.9,2.6-1.1                     c0.6,0,1.2,0.1,1.6,0.5c0.7,0.5,0.9,1.2,0.9,2c0,0.8,0,2,0,2.8c0,0.8,0.3,1,0.5,1c0.2,0,0.3,0,0.5-0.1l0.2,0.5L263.9,144z                      M262.4,140c-0.3,0.2-0.6,0.3-0.9,0.5c-0.5,0.3-0.8,0.5-0.8,1.1c0,0.9,0.6,1.2,1,1.2c0.2,0,0.4,0,0.7-0.3                     C262.4,141.8,262.4,140.8,262.4,140z"/>
                <path class="st16" d="M274.4,143.8c-1.4,0-2.5,0-2.9,0c0-0.1-2-3.1-2.1-3.2c-0.1-0.2-0.2-0.3-0.3-0.3c0,0-0.1,0-0.1,0v1.7                     c0,1,0.1,1.1,0.9,1.2v0.5H266v-0.5c0.8-0.1,0.9-0.2,0.9-1.2v-7.3c0-0.9-0.1-0.9-0.9-1.1v-0.5c1-0.1,2.1-0.3,3-0.5                     c0,0.7,0,1.3,0,1.9v5.4c0.4-0.1,0.6-0.4,0.9-0.6c0.4-0.4,1-1.1,1.2-1.4c0.2-0.4-0.1-0.5-0.7-0.6v-0.5l3.4-0.1v0.5                     c-1,0.2-1.5,0.4-2.1,1c-0.3,0.3-0.6,0.7-1.1,1.2c0.4,0.6,1.9,2.7,2.4,3.2c0.5,0.6,0.7,0.7,1.4,0.8V143.8z"/>
                <path class="st16" d="M274.2,143.8v-0.6c1.2-0.1,1.4-0.2,1.4-1.6v-6.1c0-1.3-0.2-1.5-1.4-1.6v-0.6h4.9v0.6                     c-1.2,0.1-1.4,0.2-1.4,1.6v6.1c0,1.3,0.1,1.4,1.4,1.6v0.6H274.2z"/>
                <path class="st16" d="M285.5,143.8v-0.5c0.7-0.1,0.7-0.2,0.7-1.3v-2.7c0-1.1-0.6-1.5-1.1-1.5c-0.4,0-0.8,0.2-1.2,0.5v3.9                     c0,1,0.1,1,0.7,1.1v0.5h-3.7v-0.5c0.8-0.1,0.9-0.2,0.9-1.2v-3.3c0-1-0.1-1-0.8-1.2v-0.5c0.9-0.1,2-0.3,2.9-0.6                     c0,0.2,0,0.8,0,1.2c0.3-0.2,0.7-0.5,1-0.7c0.5-0.3,0.8-0.4,1.2-0.4c1.3,0,2.1,0.9,2.1,2.6v3c0,1,0.1,1,0.9,1.2v0.5H285.5z"/>
            </g>
            <g>
                <path class="st16" d="M240.5,274.5h1.3v4.4h2.3v1h-3.6V274.5z"/>
                <path class="st16" d="M249.2,277.9c0,1.4-1.1,2.1-2.2,2.1c-1.2,0-2.2-0.8-2.2-2c0-1.3,0.9-2.1,2.2-2.1                     C248.3,275.9,249.2,276.7,249.2,277.9z M246.2,278c0,0.7,0.3,1.2,0.9,1.2c0.5,0,0.8-0.5,0.8-1.2c0-0.6-0.2-1.2-0.8-1.2                     C246.4,276.8,246.2,277.4,246.2,278z"/>
                <path class="st16" d="M252.7,279.9l-0.1-0.4h0c-0.3,0.3-0.7,0.5-1.2,0.5c-0.8,0-1.3-0.6-1.3-1.2c0-1,1-1.5,2.4-1.5v-0.1                     c0-0.2-0.1-0.5-0.8-0.5c-0.4,0-0.9,0.1-1.1,0.3l-0.2-0.8c0.3-0.2,0.9-0.3,1.6-0.3c1.4,0,1.8,0.8,1.8,1.7v1.4c0,0.4,0,0.7,0.1,1                     H252.7z M252.6,278.1c-0.7,0-1.2,0.1-1.2,0.6c0,0.3,0.2,0.5,0.5,0.5c0.3,0,0.6-0.2,0.7-0.5c0-0.1,0-0.1,0-0.2V278.1z"/>
                <path class="st16" d="M259.3,274.2v4.6c0,0.4,0,0.9,0,1.2h-1.1l-0.1-0.6h0c-0.3,0.4-0.8,0.7-1.3,0.7c-1,0-1.8-0.8-1.8-2                     c0-1.3,0.9-2.1,1.9-2.1c0.5,0,0.9,0.2,1.1,0.4h0v-2.1H259.3z M258,277.7c0-0.1,0-0.2,0-0.2c-0.1-0.3-0.4-0.6-0.8-0.6                     c-0.6,0-0.9,0.5-0.9,1.1c0,0.7,0.3,1.1,0.9,1.1c0.4,0,0.7-0.2,0.7-0.6c0-0.1,0-0.2,0-0.3V277.7z"/>
                <path class="st16" d="M262,274.9c0,0.3-0.3,0.6-0.7,0.6c-0.4,0-0.7-0.3-0.7-0.6c0-0.4,0.3-0.6,0.7-0.6S262,274.5,262,274.9z                      M260.7,279.9v-4h1.3v4H260.7z"/>
                <path class="st16" d="M263.4,277.2c0-0.5,0-0.9,0-1.3h1.1l0.1,0.5h0c0.2-0.3,0.6-0.6,1.3-0.6c0.9,0,1.5,0.5,1.5,1.7v2.3H266                     v-2.2c0-0.5-0.2-0.9-0.7-0.9c-0.4,0-0.6,0.2-0.7,0.5c0,0.1-0.1,0.2-0.1,0.3v2.3h-1.3V277.2z"/>
                <path class="st16" d="M272.7,276c0,0.3,0,0.6,0,1.2v2.2c0,0.8-0.2,1.4-0.6,1.8c-0.5,0.4-1.1,0.5-1.7,0.5c-0.5,0-1.1-0.1-1.5-0.3                     l0.3-0.9c0.3,0.1,0.7,0.3,1.2,0.3c0.6,0,1.1-0.3,1.1-1v-0.3h0c-0.2,0.3-0.6,0.5-1.1,0.5c-1,0-1.8-0.8-1.8-1.9                     c0-1.3,0.9-2.1,1.9-2.1c0.6,0,0.9,0.2,1.1,0.6h0l0-0.5H272.7z M271.4,277.6c0-0.1,0-0.2,0-0.2c-0.1-0.3-0.3-0.5-0.7-0.5                     c-0.5,0-0.9,0.4-0.9,1.1c0,0.6,0.3,1.1,0.9,1.1c0.3,0,0.6-0.2,0.7-0.5c0-0.1,0-0.2,0-0.3V277.6z"/>
                <path class="st16" d="M282,279.3c0-0.4,0.3-0.8,0.8-0.8c0.5,0,0.8,0.3,0.8,0.8c0,0.4-0.3,0.7-0.8,0.7                     C282.3,280,282,279.7,282,279.3z"/>
                <path class="st16" d="M276.4,279.3c0-0.4,0.3-0.8,0.8-0.8c0.5,0,0.8,0.3,0.8,0.8c0,0.4-0.3,0.7-0.8,0.7                     C276.8,280,276.4,279.7,276.4,279.3z"/>
                <path class="st16" d="M279.3,279.3c0-0.4,0.3-0.8,0.8-0.8c0.5,0,0.8,0.3,0.8,0.8c0,0.4-0.3,0.7-0.8,0.7                     C279.6,280.1,279.3,279.7,279.3,279.3z"/>
            </g>
        </g>
    </g>
</g>
<g id="Plant">
    <g>
        <g>
            <path class="st8" d="M423.2,356.3c-1.6-2.6-4.2-0.3-4.2-0.3c0.4-5.1-4.3-8.5-4.3-8.5s5.4,0,6.2-5.2c0.8-5.2-1.9-2.8-4.4-2.8                 c-2.5,0-5.1,7.2-1.8,11.3c3.3,4.1,2.4,11-5.1,17.7c-1.8,1.6-3.1,3.8-3.9,6.1c0.6-6.1,0.9-14.8-0.9-20.5                 c-3.1-9.8,2.8-12.4,4.5-17.3c1.7-4.9-4.5-9-4.5-9s5.8-2.6,3-5.6c-2.8-3-8.7-2.6-8.7,1.3c0,3.9,4,5.4,4,5.4s4.5,4.7,4.5,7.2                 c0,2.4-4.5,7.7-4.5,7.7s2.1-4.5-2.1-4.7c-4.1-0.2-5.5,5.3-3.8,7.7c1.7,2.4,4.5,0.4,4.5,0.4s0.3,5.3,1.3,8.5                 c0.4,1.4,0.2,6.9-0.1,12.7c-0.8-2.1-2-4-3.7-5.4c-7.5-6.7-8.4-13.6-5.1-17.7c3.3-4.1,0.7-11.3-1.8-11.3c-2.5,0-5.1-2.4-4.4,2.8                 c0.8,5.2,6.2,5.2,6.2,5.2s-4.6,3.5-4.3,8.5c0,0-2.6-2.3-4.2,0.3c-2.9,4.7,3.8,7.6,4.9,5.3c0,0,14,9.9,10.7,24.3l0.8,1.2                 c-0.1,1.2-0.2,1.9-0.2,1.9l1.1-0.5l1.2,1.8c-0.1,3.6,0.3,6.2,0.3,6.2l3.4-5c-3.4-14.3,10.7-24.3,10.7-24.3                 C419.4,364,426,361,423.2,356.3z"/>
            <path class="st18" d="M423.2,356.3c-1.6-2.6-4.2-0.3-4.2-0.3c0.4-5.1-4.3-8.5-4.3-8.5s5.4,0,6.2-5.2c0.8-5.2-1.9-2.8-4.4-2.8                 c-2.5,0-5.1,7.2-1.8,11.3c3.3,4.1,2.4,11-5.1,17.7c-1.8,1.6-3.1,3.8-3.9,6.1c0.6-6.1,0.9-14.8-0.9-20.5                 c-3.1-9.8,2.8-12.4,4.5-17.3c1.7-4.9-4.5-9-4.5-9s5.8-2.6,3-5.6c-2.8-3-8.7-2.6-8.7,1.3c0,3.9,4,5.4,4,5.4s4.5,4.7,4.5,7.2                 c0,2.4-4.5,7.7-4.5,7.7s2.1-4.5-2.1-4.7c-4.1-0.2-5.5,5.3-3.8,7.7c1.7,2.4,4.5,0.4,4.5,0.4s0.3,5.3,1.3,8.5                 c0.4,1.4,0.2,6.9-0.1,12.7c-0.8-2.1-2-4-3.7-5.4c-7.5-6.7-8.4-13.6-5.1-17.7c3.3-4.1,0.7-11.3-1.8-11.3c-2.5,0-5.1-2.4-4.4,2.8                 c0.8,5.2,6.2,5.2,6.2,5.2s-4.6,3.5-4.3,8.5c0,0-2.6-2.3-4.2,0.3c-2.9,4.7,3.8,7.6,4.9,5.3c0,0,14,9.9,10.7,24.3l0.8,1.2                 c-0.1,1.2-0.2,1.9-0.2,1.9l1.1-0.5l1.2,1.8c-0.1,3.6,0.3,6.2,0.3,6.2l3.4-5c-3.4-14.3,10.7-24.3,10.7-24.3                 C419.4,364,426,361,423.2,356.3z"/>
        </g>
        <g class="st13">
            <path d="M423.2,356.3c-1.6-2.6-4.2-0.3-4.2-0.3c0.4-5.1-4.3-8.5-4.3-8.5s5.4,0,6.2-5.2c0.8-5.2-1.9-2.8-4.4-2.8                 c-2.5,0-5.1,7.2-1.8,11.3c3.3,4.1,2.4,11-5.1,17.7c-1.8,1.6-3.1,3.8-3.9,6.1c0.6-6.1,0.9-14.8-0.9-20.5                 c-3.1-9.8,2.8-12.4,4.5-17.3c1.7-4.9-4.5-9-4.5-9s5.8-2.6,3-5.6c-2.8-3-8.7-2.6-8.7,1.3c0,3.9,4,5.4,4,5.4s4.5,4.7,4.5,7.2                 c0,2.4-4.5,7.7-4.5,7.7s2.1-4.5-2.1-4.7c-4.1-0.2-5.5,5.3-3.8,7.7c1.7,2.4,4.5,0.4,4.5,0.4s0.3,5.3,1.3,8.5                 c0.4,1.4,0.2,6.9-0.1,12.7c-0.8-2.1-2-4-3.7-5.4c-7.5-6.7-8.4-13.6-5.1-17.7c3.3-4.1,0.7-11.3-1.8-11.3c-2.5,0-5.1-2.4-4.4,2.8                 c0.8,5.2,6.2,5.2,6.2,5.2s-4.6,3.5-4.3,8.5c0,0-2.6-2.3-4.2,0.3c-2.9,4.7,3.8,7.6,4.9,5.3c0,0,14,9.9,10.7,24.3l0.8,1.2                 c-0.1,1.2-0.2,1.9-0.2,1.9l1.1-0.5l1.2,1.8c-0.1,3.6,0.3,6.2,0.3,6.2l3.4-5c-3.4-14.3,10.7-24.3,10.7-24.3                 C419.4,364,426,361,423.2,356.3z"/>
            <path class="st15" d="M423.2,356.3c-1.6-2.6-4.2-0.3-4.2-0.3c0.4-5.1-4.3-8.5-4.3-8.5s5.4,0,6.2-5.2c0.8-5.2-1.9-2.8-4.4-2.8                 c-2.5,0-5.1,7.2-1.8,11.3c3.3,4.1,2.4,11-5.1,17.7c-1.8,1.6-3.1,3.8-3.9,6.1c0.6-6.1,0.9-14.8-0.9-20.5                 c-3.1-9.8,2.8-12.4,4.5-17.3c1.7-4.9-4.5-9-4.5-9s5.8-2.6,3-5.6c-2.8-3-8.7-2.6-8.7,1.3c0,3.9,4,5.4,4,5.4s4.5,4.7,4.5,7.2                 c0,2.4-4.5,7.7-4.5,7.7s2.1-4.5-2.1-4.7c-4.1-0.2-5.5,5.3-3.8,7.7c1.7,2.4,4.5,0.4,4.5,0.4s0.3,5.3,1.3,8.5                 c0.4,1.4,0.2,6.9-0.1,12.7c-0.8-2.1-2-4-3.7-5.4c-7.5-6.7-8.4-13.6-5.1-17.7c3.3-4.1,0.7-11.3-1.8-11.3c-2.5,0-5.1-2.4-4.4,2.8                 c0.8,5.2,6.2,5.2,6.2,5.2s-4.6,3.5-4.3,8.5c0,0-2.6-2.3-4.2,0.3c-2.9,4.7,3.8,7.6,4.9,5.3c0,0,14,9.9,10.7,24.3l0.8,1.2                 c-0.1,1.2-0.2,1.9-0.2,1.9l1.1-0.5l1.2,1.8c-0.1,3.6,0.3,6.2,0.3,6.2l3.4-5c-3.4-14.3,10.7-24.3,10.7-24.3                 C419.4,364,426,361,423.2,356.3z"/>
        </g>
        <polygon class="st8" points="420.4,417.4 388.2,417.4 384.8,382.2 423.9,382.2        "/>
        <polygon class="st14" points="420.4,417.4 388.2,417.4 384.8,382.2 423.9,382.2       "/>
        <rect x="383" y="378.3" class="st8" width="42.5" height="7.8"/>
        <rect x="383" y="378.3" class="st19" width="42.5" height="7.8"/>
    </g>
</g>
<g id="Character">
    <g>
        <g>
            <path class="st8" d="M157.9,179.8c3.8,0.2,19.7,21.5,19.7,21.5l5.9-7.7c0,0,9.1,17.7,4.6,26.1c-4.5,8.4-28.2-14.6-28.2-14.6                 L157.9,179.8z"/>
            <path class="st12" d="M157.9,179.8l1.6,17l0.4,8.3c0,0,3.9,3.8,8.8,7.7c7.2,5.8,16.7,11.9,19.4,6.9c4.5-8.4-4.6-26.1-4.6-26.1                 l-5.9,7.7l0-0.1C176.6,200,161.6,180,157.9,179.8z"/>
        </g>
        <path class="st15" d="M159.5,196.9l0.4,8.3c0,0,3.9,3.8,8.8,7.7c0.5-10-8.8-24.5-8.8-24.5L159.5,196.9z"/>
        <path class="st15" d="M177.6,201.4l-0.8,1.6l2.5,9.6c0,0-6.8-6.2-2.5-12.3L177.6,201.4z"/>
        <g>
            <path class="st8" d="M158.6,233.2l-32,2.5c0,0-0.4-19.1-3-29.1c-0.8-3.2-1.9-6.8-3.2-11c-0.6-1.8-1.2-3.7-1.8-5.7                 c-0.6-1.9-1.3-3.9-2-5.9c4.4-1.4,8.8-2.5,13.4-3.2c4.8-0.9,9.6-1.4,14.5-1.5c6.3,0,13.5,0.7,13.5,0.7s1,0.3,1.7,6.9                 C160.1,193,159.9,210.5,158.6,233.2z"/>
            <path class="st12" d="M158.6,233.2l-32,2.5c0,0,0-0.4,0-1.1c-0.1-4.2-0.8-19.4-2.9-28c-0.6-2.3-1.3-4.8-2.1-7.6                 c-0.3-1.1-0.7-2.3-1.1-3.5c-0.6-1.8-1.2-3.7-1.8-5.7c-0.6-1.9-1.3-3.9-2-5.9c4.4-1.4,8.8-2.5,13.4-3.2c4.8-0.9,9.6-1.4,14.5-1.5                 c6.3-0.1,13.5,0.7,13.5,0.7s1,0.3,1.7,6.9C160.1,193,159.9,210.5,158.6,233.2z"/>
        </g>
        <path class="st20" d="M118.4,395.1l4.8,2.8c0,0,2.3-3.3,7.3-8.7v0c1.4-1.5,2.9-3.1,4.4-4.9c3.1-3.5,6.4-7.5,9.8-11.8             c1-1.3,2.1-2.6,3.1-3.9c12.1-15.2,25.2-33.1,30-45.2c1.5-3.8,2.3-6.9,1.9-9.3c-1-7.2-3.8-18.1-7-28.6c-4.9-16-10.4-31.3-10.4-31.3             L149,277.1c0,0,4.1,9.9,7.9,20.4c3.7,10.3,7.1,21.3,5.8,24.1c-0.1,0.3-0.3,0.6-0.4,1c-2.2,4.6-8.4,15.1-15.5,26.8             c-0.7,1.2-1.4,2.4-2.1,3.5c-3.8,6.2-7.7,12.6-11.4,18.4c-1.4,2.3-2.8,4.5-4.1,6.6C123,387.9,118.4,395.1,118.4,395.1z"/>
        <path class="st15" d="M148.2,368.6c-6.4,8-12.5,15.3-17.1,20.6c-0.7-3.3-1.3-7.1-1.8-11.3c5.3-8.5,11.7-18.9,17.6-28.6             C146.8,354.4,147,362,148.2,368.6z"/>
        <path class="st20" d="M124.1,302.5c1.7,11.4,4.1,21.7,5.6,27.9c0.9,3.7,1.6,5.9,1.6,5.9c-0.1,11.5,0.8,23.8,2.1,35             c0.5,4.6,1.1,9,1.6,13.1c2.1,15.1,4.3,26,4.3,26l5.8-0.8l-0.2-37.1l-0.1-19.7l-0.2-26.8l-0.1-4.7l-0.3-20.3l-0.4-30l-20-9             C121.1,273.5,122.1,288.8,124.1,302.5z"/>
        <path class="st15" d="M173,285.9l-17.4,7.9c-3.3-9-6.6-16.7-6.6-16.7l13.5-22.8c0,0,5.5,15.2,10.4,31.3             C172.9,285.7,173,285.8,173,285.9z"/>
        <path class="st15" d="M144.1,296.6l-20.6,1.3c-1.6-12.5-2.1-25.7,0.3-35.9l20,9L144.1,296.6z"/>
        <path class="st21" d="M118.8,391.9c0.6-0.4,5.6,7,5.6,7s-1.1,7.8,1.1,12.8c2.2,5-2.1,4.6-5.7-0.2c-3.6-4.8-6.4-8.4-9-11.8             C108.2,396.5,112.7,396.4,118.8,391.9z"/>
        <g>
            <path class="st8" d="M126.1,404.6c-1.1-0.3-1.9-3.5-2-4.1c0,0,0-0.1,0-0.1l0,0l0,0c0,0,0,0,0-0.1h0l0,0c0,0,0,0,0-0.1h0                 c0,0,0,0,0,0h0l0,0l0,0c0,0,0.1,0,0.1,0c0.1,0,2.2-0.7,3.3,0c0.4,0.2,0.6,0.5,0.7,0.9c0.1,0.4,0,0.8-0.2,0.9                 c-0.4,0.3-1.2,0-1.9-0.3c0.5,0.6,1,1.2,1,1.7c0,0.3,0,0.5-0.2,0.7c-0.3,0.3-0.5,0.4-0.7,0.4C126.2,404.6,126.1,404.6,126.1,404.6                 z M126.2,404.1c0,0,0.2,0,0.4-0.2c0.1-0.1,0.1-0.2,0.1-0.4c-0.1-0.7-1.2-1.8-2-2.5C125.1,402.4,125.7,404,126.2,404.1z                  M124.9,400.5c1.2,0.7,2.5,1.3,2.9,1.1c0.1-0.1,0.1-0.3,0-0.4c-0.1-0.3-0.2-0.5-0.5-0.6c-0.3-0.2-0.7-0.2-1.1-0.2                 C125.8,400.3,125.3,400.4,124.9,400.5z"/>
        </g>
        <path class="st21" d="M137.2,406.7c0-0.7,9-0.2,9-0.2s5.5,5.6,10.9,6.9c5.3,1.3,2.4,4.5-3.6,4.5c-6,0-10.5,0-14.8,0             C134.4,417.9,137.1,414.2,137.2,406.7z"/>
        <g>
            <path class="st8" d="M147.2,407.7C147.2,407.7,147.2,407.7,147.2,407.7L147.2,407.7L147.2,407.7c-0.1-0.1-0.1-0.1-0.1-0.1l0,0                 l0,0c0,0,0,0,0-0.1l0,0l0,0c0,0,0,0,0,0l0,0c0,0,0-0.1,0-0.1c0-0.1,0.8-2.2,2-2.7c0.4-0.2,0.8-0.1,1.2,0c0.4,0.2,0.6,0.4,0.6,0.8                 c0,0.5-0.7,0.9-1.4,1.3c0.8-0.1,1.5-0.1,2,0.2c0.3,0.1,0.4,0.3,0.5,0.6c0.1,0.5,0,0.8-0.2,1c-0.2,0.2-0.5,0.2-0.8,0.2                 C149.7,408.8,147.7,407.9,147.2,407.7z M148,407.5c1.3,0.6,3,1.1,3.4,0.7c0,0,0.1-0.1,0.1-0.5c0-0.1-0.1-0.2-0.3-0.3                 c-0.2-0.1-0.6-0.2-1.1-0.2C149.5,407.3,148.6,407.4,148,407.5z M149.3,405.1c-0.7,0.3-1.3,1.3-1.5,1.9c1.3-0.5,2.6-1.2,2.6-1.6                 c0-0.1-0.2-0.2-0.3-0.3c-0.1-0.1-0.3-0.1-0.4-0.1C149.5,405.1,149.4,405.1,149.3,405.1z"/>
        </g>
        <path class="st20" d="M141.7,186.3c-8-1-10.3-4.4-10.3-4.4c3.3-3.1,2.7-7.6,1.8-10.4c-0.4-1.6-1-2.6-1-2.6l9.6,1.8             c-0.3,1.6-0.4,2.9-0.4,4c0,1.2,0.1,2.2,0.3,3c0.7,2.9,2.3,2.9,2.3,2.9C145.7,183.7,141.7,186.3,141.7,186.3z"/>
        <path class="st15" d="M141.5,174.7c0,1.2,0.1,2.2,0.3,3c-3.8-0.5-6.7-3.5-8.5-6.2c-0.4-1.6-1-2.6-1-2.6l9.6,1.8             C141.6,172.3,141.5,173.6,141.5,174.7z"/>
        <g>
            <path class="st21" d="M133.2,138.6c-13.5,1.1-21.5,36.3-2.4,32.9c5.6-1,29-18.9,20.1-25.7C142,139,133.2,138.6,133.2,138.6z"/>
            <path class="st20" d="M143.1,145.3c8.2,1.2,10.3,6,9.6,14.6c-0.8,10.7-4.2,17.9-14.2,14.2C125,168.9,129.4,143.3,143.1,145.3z"/>
            <path class="st22" d="M147.5,158.6c0,0,0.8,2.3,1.9,3.8c0,0-0.9,1-2.3,0.6L147.5,158.6z"/>
            <g>
                <path class="st21" d="M142.6,157.2c-0.1,0.7-0.5,1.2-1,1.1c-0.5-0.1-0.8-0.6-0.7-1.3c0.1-0.7,0.5-1.2,1-1.1                     C142.3,155.9,142.6,156.5,142.6,157.2z"/>
                <path class="st21" d="M141.7,155.9l1.5-0.4C143.2,155.5,142.3,156.6,141.7,155.9z"/>
            </g>
            <g>
                <path class="st21" d="M151,158.1c-0.1,0.7-0.5,1.2-1,1.1c-0.5-0.1-0.8-0.6-0.7-1.3c0.1-0.7,0.5-1.2,1-1.1                     C150.8,156.8,151.1,157.4,151,158.1z"/>
                <path class="st21" d="M150.1,156.8l1.5-0.4C151.7,156.4,150.8,157.5,150.1,156.8z"/>
            </g>
            <path class="st23" d="M143.3,151.5c0,0-2.3-0.6-3.8,0.7"/>
            <path class="st23" d="M149.3,152c0,0,1.5-0.3,3.2,1.2"/>
            <path class="st21" d="M132.1,157.9c0,0,4.8-6.2,5-11.5c0,0,17.3-4.3,15.7,12.4c0,0,3.7-14.5-10.4-16.9                 c-14.1-2.4-17.1,18.4-10.6,25.6C131.8,167.4,129.1,161.7,132.1,157.9z"/>
            <path class="st20" d="M133.2,159.8c0.1-1.3-0.9-3.8-3.4-3.9c-2.6-0.1-4.6,5,1.6,7.2C132.3,163.4,132.9,162.6,133.2,159.8z"/>
            <path class="st23" d="M145.3,167.3c0,0-3.6,0.3-4.6-3"/>
            <path class="st21" d="M133.2,138.6c0,0,12.1-1.6,19.6,5.7c7.6,7.3-14.7,6.1-14.7,6.1l5.6-2.6c0,0-7,2-10.1,1L133.2,138.6z"/>
            <path class="st21" d="M124.2,160.1c0,0-3.7,6.4,0,12c0,0-2.9,6,3.1,10.3c0,0-1.1,3.4,4.1,7.4c0,0,1.6,5.3,0.3,9.1l3.8-1.9                 c0,0,0-4.7-2.3-7.5c0,0,1.2-7.5-1.8-10c0,0,1.4-4.7,0.8-6.8c0,0-1.5-8.9-1.7-9.9C130.5,162.7,125.4,162.1,124.2,160.1z"/>
            <path class="st24" d="M151.7,143.8c0,0,3.8,2.1,3.2,4.8c-0.6,2.8-9.5,3.3-9.5,3.3"/>
        </g>
        <g>
            <path class="st21" d="M163.7,193.9c-0.1,0.5,0.3,0.9,0.8,0.9h9.1c0.5,0,1-0.4,1-0.9l2-18c0.1-0.5-0.3-1-0.8-1h-9.1                 c-0.5,0-1,0.5-1,1L163.7,193.9z"/>
            <path class="st25" d="M166.7,175.8l-2.1,18.2c-0.1,0.5,0.2,0.9,0.7,0.9h7.8c0.5,0,1.5-0.3,1.5-0.8l2.1-18.3                 c0.1-0.5-0.8-0.9-1.3-0.9h-7.8C167.1,174.9,166.8,175.3,166.7,175.8z"/>
        </g>
        <path class="st12" d="M145.9,237.3c0,0.9,0.7,1.6,1.6,1.6c0.9,0,1.6-0.7,1.6-1.6c0-0.9-0.7-1.6-1.6-1.6             C146.7,235.7,145.9,236.4,145.9,237.3z"/>
        <path class="st20" d="M182.8,195.4l-4.8-8.1c0,0,0-4.3-0.4-5.3c-0.4-1-5.1-3.3-6-2.9c-0.9,0.3-1.3,8.7-0.4,9.8             c0.8,1.1,3.8,2.4,3.8,2.4l-0.2,1.6l2.8,8.4L182.8,195.4z"/>
        <polygon class="st8" points="184.7,194.5 183.2,192.9 175.7,201.4 176.7,204.7        "/>
        <path class="st21" d="M175.4,283.1l-24.6,8.7l-0.8-2.3l-1-2.8l-0.4,4l-0.3,3.1h-29.8c0,0-0.1-0.9-0.2-2.4             c-0.3-4.8-0.7-16.2,1.2-29.4c1.1-7.9,3.1-16.5,6.3-24.6c0.3-0.6,0.5-1.2,0.8-1.8l32-2.5l0.3,1.5l2,11.5l3.8,9.7l9.4,23.8             L175.4,283.1z"/>
        <path class="st15" d="M146.7,208c0,0-8.8,20.1-20.2,26.6c-0.1-4.2-0.8-19.4-2.9-28c-0.6-2.3-1.3-4.8-2.1-7.6l3.5-4.2             c0,0,2.4,7.4,1.3,13.9l13.3-8.1L146.7,208z"/>
        <path class="st20" d="M138.2,203.4l10.8-8.5c0,0,1.6-4.6,2.3-5.4c0.7-0.8,10.2-4.3,10.9-4.4s0,7.8-1.2,9.1c-1.2,1.3-8.8,4-8.8,4             l-11.3,10.7L138.2,203.4z"/>
        <g>
            <path class="st8" d="M116.5,183.9c-6.4,3.2-9.2,39.1,1.9,45.3c11,6.2,27.5-21.8,27.5-21.8l-6.4-6.8c0,0-13.4,11.3-15.1,10.2                 c-1.6-1,0.2-12,0.2-12s1.9-3.3-2.1-8.6C118.6,185,116.5,183.9,116.5,183.9z"/>
            <path class="st12" d="M116.5,183.9c-6.4,3.2-9.2,39.1,1.9,45.3c11,6.2,27.5-21.8,27.5-21.8l-6.4-6.8c0,0-13.4,11.3-15.1,10.2                 c-1.6-1,0.2-12,0.2-12s1.9-3.3-2.1-8.6C118.6,185,116.5,183.9,116.5,183.9z"/>
        </g>
        <polygon class="st8" points="146.1,209.9 148,208.8 140.8,198.2 138.1,199.7      "/>
        <path class="st26" d="M133.6,238.6c0,0-3.6,20-14.1,23.5c1.1-7.9,3.1-16.5,6.3-24.6L133.6,238.6z"/>
        <path class="st26" d="M164.7,255.9c-8.4-4.1-8.3-20.2-8.3-20.2l2.4-0.9l2,11.5L164.7,255.9z"/>
        <path class="st26" d="M148.6,290.8l-0.3,3.1h-29.8c0,0-0.1-0.9-0.2-2.4L148.6,290.8z"/>
        <polygon class="st26" points="175.4,283.1 150.9,291.8 150,289.6 174.1,279.7         "/>
        <path class="st26" d="M149,286.8l0.6-8.2l6.8-13.3c0,0,2.1,7.6-1.2,14.5C151.8,286.7,149,286.8,149,286.8z"/>
        <polygon class="st27" points="126.6,235.7 125.2,239 159.3,237.3 158.6,233.2         "/>
        <path class="st8" d="M144.6,234.4l0.4,3.7c0,0.4,0.4,0.7,0.8,0.7l5-0.4c0.4,0,0.7-0.4,0.7-0.8l-0.4-3.7c0-0.4-0.4-0.7-0.8-0.7             l-5,0.3C144.8,233.6,144.5,234,144.6,234.4z"/>
        <polygon class="st21" points="136.2,234.9 135.8,239.3 134.6,239.3 134.8,234.9       "/>
        <polygon class="st21" points="154.1,233.5 154.6,238.1 155.8,238.1 155.4,233.4       "/>
    </g>
</g>
</svg>