<?xml version="1.0" encoding="utf-8"?>
<!-- Generator: Adobe Illustrator 22.1.0, SVG Export Plug-In . SVG Version: 6.00 Build 0)  -->
<svg version="1.1" id="Layer_1" xmlns="http://www.w3.org/2000/svg" xmlns:xlink="http://www.w3.org/1999/xlink" x="0px" y="0px"
     width="12px" height="12px" viewBox="0 0 12 12" style="enable-background:new 0 0 12 12;" xml:space="preserve">
<style type="text/css">
    .st0{fill:none;}
</style>
<path d="M2.4,3L2.4,3c0,0.4,0.3,0.8,0.7,0.8h5.6c0.4,0,0.7-0.3,0.7-0.7v0c0-0.4-0.3-0.7-0.7-0.7H3.2C2.8,2.3,2.4,2.6,2.4,3z
     M2.4,8.9L2.4,8.9c0,0.4,0.3,0.8,0.7,0.8h5.6c0.4,0,0.7-0.3,0.7-0.7v0c0-0.4-0.3-0.7-0.7-0.7H3.2C2.8,8.2,2.4,8.5,2.4,8.9z M0.8,6
    L0.8,6c0,0.4,0.3,0.8,0.7,0.8h9c0.4,0,0.7-0.3,0.7-0.7v0c0-0.4-0.3-0.7-0.7-0.7h-9C1.1,5.3,0.8,5.6,0.8,6z"/>
<line class="st0" x1="-2.9" y1="-8185" x2="-2.9" y2="8198"/>
</svg>
