<?xml version="1.0" encoding="utf-8"?>
<!-- Generator: Adobe Illustrator 22.1.0, SVG Export Plug-In . SVG Version: 6.00 Build 0)  -->
<svg version="1.1" id="Layer_1" xmlns="http://www.w3.org/2000/svg" xmlns:xlink="http://www.w3.org/1999/xlink" x="0px" y="0px"
	 width="23.2px" height="17.3px" viewBox="0 0 23.2 17.3" style="enable-background:new 0 0 23.2 17.3;" xml:space="preserve">
<style type="text/css">
	.st0{fill:#66C29B;}
	.st1{fill:#F7F7F7;}
</style>
<path class="st0" d="M21,17.3H2.3c-1.3,0-2.3-1-2.3-2.3V2.3C0,1,1,0,2.3,0H21c1.3,0,2.3,1,2.3,2.3v12.8C23.2,16.3,22.2,17.3,21,17.3
	z"/>
<g>
	<g>
		<path class="st1" d="M17.8,13.2H5.4c-1.4,0-2.5-1.1-2.5-2.5v-4c0-1.4,1.1-2.5,2.5-2.5h12.3c1.4,0,2.5,1.1,2.5,2.5v4
			C20.3,12.1,19.2,13.2,17.8,13.2z"/>
	</g>
	<circle class="st0" cx="11.6" cy="8.7" r="1.7"/>
</g>
</svg>
