<?xml version="1.0" encoding="utf-8"?>
<!-- Generator: Adobe Illustrator 22.1.0, SVG Export Plug-In . SVG Version: 6.00 Build 0)  -->
<svg version="1.1" id="Layer_1" xmlns="http://www.w3.org/2000/svg" xmlns:xlink="http://www.w3.org/1999/xlink" x="0px" y="0px"
	 width="100px" height="100px" viewBox="0 0 500 500" style="enable-background:new 0 0 500 500;" xml:space="preserve">
<style type="text/css">
	.st0{fill:url(#SVGID_1_);}
	.st1{fill:#FCFAFC;stroke:#DFC0C9;stroke-width:3;stroke-miterlimit:10;}
	.st2{fill:#FDFEFE;}
	.st3{opacity:0.79;fill:#FDFEFE;}
	.st4{opacity:0.51;fill:#FDFEFE;}
</style>
<linearGradient id="SVGID_1_" gradientUnits="userSpaceOnUse" x1="25.7039" y1="250" x2="445.9147" y2="250">
	<stop  offset="0" style="stop-color:#ED6252"/>
	<stop  offset="1" style="stop-color:#851618"/>
</linearGradient>
<path class="st0" d="M351.8,484.9c-91,32.2-317-57.4-325.9-219.7s206-276,300-253.9C469.9,45.2,491.3,435.6,351.8,484.9z"/>
<g>
	<path class="st1" d="M156.5,336.9c6.6-6.5,17.5-6,23.3,1.3c9.7,12.2,22.7,24.2,38.4,32.8c32.6,17.8,61,11,74.6-13.9
		c12.6-23.1,6.6-43.5-19.7-74.5c-32.5-36.3-46-70.8-27-105.5c21-38.4,68.5-49.6,116.4-23.4c17.4,9.5,30,20,38.6,29.6
		c5.7,6.3,5.2,16.1-1.1,21.8l0,0c-6.5,5.9-16.5,5.4-22.3-1.2c-7-7.9-17-17-30.8-24.5c-33.7-18.4-57.5-5.3-66.7,11.6
		c-12.6,23.1-3.8,42.6,23.1,74.4c32.9,38.9,43.2,70.7,23.4,106.9c-20.8,38.1-67,55.6-125.2,23.8c-18.3-10-35.6-24.7-46.4-38.3
		C150.2,351.6,150.7,342.6,156.5,336.9L156.5,336.9z"/>
</g>
<g>
	<circle class="st2" cx="190.6" cy="257.1" r="23.9"/>
	<circle class="st3" cx="132.1" cy="257.1" r="23.9"/>
	<circle class="st4" cx="73.2" cy="257.1" r="23.9"/>
</g>
</svg>
