<?xml version="1.0" encoding="utf-8"?>
<!-- Generator: Adobe Illustrator 22.1.0, SVG Export Plug-In . SVG Version: 6.00 Build 0)  -->
<svg version="1.1" id="Layer_1" focusable="false" xmlns="http://www.w3.org/2000/svg" xmlns:xlink="http://www.w3.org/1999/xlink"
	 x="0px" y="0px" width="846px" height="512px" viewBox="0 0 846 512" style="enable-background:new 0 0 846 512;"
	 xml:space="preserve">
<style type="text/css">
	.st0{fill:#38423E;}
	.st1{fill:#22EAAA;}
</style>
<circle class="st0" cx="456.7" cy="256" r="245.3"/>
<path class="st1" d="M314.8,178.1h272.8c5.8,0,10.5-4.7,10.5-10.5v-26.2c0-5.8-4.7-10.5-10.5-10.5H314.8c-5.8,0-10.5,4.7-10.5,10.5
	v26.2C304.3,173.4,309,178.1,314.8,178.1z M424.9,289.3h166.9c3.5,0,6.4-4.7,6.4-10.5v-26.2c0-5.8-2.9-10.5-6.4-10.5H424.9
	c-3.5,0-6.4,4.7-6.4,10.5v26.2C418.5,284.6,421.3,289.3,424.9,289.3z M316.6,403.7h272.8c5.8,0,10.5-4.7,10.5-10.5V367
	c0-5.8-4.7-10.5-10.5-10.5H316.6c-5.8,0-10.5,4.7-10.5,10.5v26.2C306.1,399,310.8,403.7,316.6,403.7z"/>
</svg>
