<?xml version="1.0" encoding="utf-8"?>
<!-- Generator: Adobe Illustrator 22.1.0, SVG Export Plug-In . SVG Version: 6.00 Build 0)  -->
<svg version="1.1" id="_x32_c32a5d1-9ebb-4e5f-946d-03caca411964"
	 xmlns="http://www.w3.org/2000/svg" xmlns:xlink="http://www.w3.org/1999/xlink" x="0px" y="0px" viewBox="0 0 790 731"
	 style="enable-background:new 0 0 790 731;" xml:space="preserve">
<style type="text/css">
	.st0{opacity:0.5;}
	.st1{fill:url(#SVGID_1_);}
	.st2{fill:#FFFFFF;}
	.st3{opacity:0.4;fill:#F4AF53;enable-background:new    ;}
	.st4{fill:#DBDBDB;}
	.st5{fill:url(#SVGID_2_);}
	.st6{fill:#F5F5F5;}
	.st7{fill:#FDA57D;}
	.st8{fill:#1BEADA;}
	.st9{opacity:0.1;enable-background:new    ;}
	.st10{fill:#6C63FF;}
	.st11{opacity:0.1;fill:#1BEADA;enable-background:new    ;}
	.st12{fill:url(#SVGID_3_);}
	.st13{fill:#BE7C5E;}
	.st14{fill:#333333;}
	.st15{fill:url(#SVGID_4_);}
	.st16{fill:url(#SVGID_5_);}
	.st17{fill:#47E6B1;}
	.st18{opacity:0.5;fill:#4D8AF0;enable-background:new    ;}
	.st19{opacity:0.5;fill:#F55F44;enable-background:new    ;}
	.st20{opacity:0.5;fill:#47E6B1;enable-background:new    ;}
</style>
<title>chating</title>
<g class="st0">
	
		<linearGradient id="SVGID_1_" gradientUnits="userSpaceOnUse" x1="461.7348" y1="-60.776" x2="746.2797" y2="611.1154" gradientTransform="matrix(1 -2.443458e-03 -2.443458e-03 -1 -217.1248 645.6506)">
		<stop  offset="0" style="stop-color:#808080;stop-opacity:0.25"/>
		<stop  offset="0.54" style="stop-color:#808080;stop-opacity:0.12"/>
		<stop  offset="1" style="stop-color:#808080;stop-opacity:0.1"/>
	</linearGradient>
	<path class="st1" d="M551.7,44l-332.5,0.8c-7.5,0-13.6,6.1-13.6,13.7c0,0,0,0,0,0l1.5,621.9c0,7.5,6.1,13.6,13.7,13.6c0,0,0,0,0,0
		l332.5-0.8c7.5,0,13.6-6.1,13.6-13.7c0,0,0,0,0,0l-1.5-621.9C565.3,50.1,559.2,44,551.7,44C551.7,44,551.7,44,551.7,44z"/>
</g>
<path class="st2" d="M224,53.3l322.8-0.8c7.5,0,13.7,6.1,13.7,13.6l1.5,604.7c0,7.5-6.1,13.7-13.6,13.7l-322.8,0.8
	c-7.5,0-13.7-6.1-13.7-13.6l-1.5-604.7C210.4,59.4,216.5,53.3,224,53.3z"/>
<path id="_x38_69b38ff-715e-463a-98e7-ca2bce61d391" class="st3" d="M473.4,68.5c-2.1,13.9-13.9,24.1-27.9,24.2L324.6,93
	c-14,0-25.9-10.2-28-24.1l-64,0.2c-7.3,0-13.3,6-13.3,13.3c0,0,0,0,0,0l1.4,573.7c0,7.3,6,13.3,13.3,13.3c0,0,0,0,0,0l306-0.7
	c7.3,0,13.3-6,13.3-13.3c0,0,0,0,0,0l-1.4-573.7c0-7.3-6-13.3-13.3-13.3h0L473.4,68.5z"/>
<path class="st4" d="M345.3,76.9l74-1.1c1.1,0,2,0.9,2,2l0,0.9c0,1.1-0.9,2-2,2l-74,1.1c-1.1,0-2-0.9-2-2l0-0.9
	C343.3,77.8,344.2,76.9,345.3,76.9z"/>
<circle class="st4" cx="437.9" cy="77.4" r="2.9"/>
<g class="st0">
	
		<linearGradient id="SVGID_2_" gradientUnits="userSpaceOnUse" x1="533.22" y1="43.4695" x2="533.22" y2="241.7553" gradientTransform="matrix(1 0 0 -1 -205 647.5)">
		<stop  offset="0" style="stop-color:#808080;stop-opacity:0.25"/>
		<stop  offset="0.54" style="stop-color:#808080;stop-opacity:0.12"/>
		<stop  offset="1" style="stop-color:#808080;stop-opacity:0.1"/>
	</linearGradient>
	<path class="st5" d="M427.1,504.6c0-54.6-44.2-98.9-98.8-98.9s-98.9,44.2-98.9,98.8c0,32.9,16.4,63.7,43.7,82.1l0.1,0.4
		c3.2,3.1,7,5.5,11.2,7.1l0.1-0.4c4.6,4,24.1,10.3,46.5,10.3h0.5c14.2,0,29.6-2.5,43.1-9.8c0,0,0.1-0.3,0.3-0.8
		c3.4-1.6,6.6-3.8,9.3-6.4c0.1-0.4,0.1-0.8,0.2-1.1C411.1,567.5,427.1,537.1,427.1,504.6z"/>
</g>
<circle class="st6" cx="328.2" cy="504.6" r="95.9"/>
<path class="st7" d="M291.6,544.1c0,0-22.9,1.9-16.8,43.5c3.1,3,6.8,5.4,10.9,6.9l12.9-43.5L291.6,544.1z"/>
<path class="st7" d="M365.7,544.1c0,0,22.8,1.9,16.8,43.5c-3.1,3-6.8,5.4-10.9,6.9L358.8,551L365.7,544.1z"/>
<path class="st8" d="M292.6,475.9c0,0-10.9,31.6-16.8,28.6c0,0,57.2,49.4,107.8,0c0,0-8.9-15.8-21.8-28.7L292.6,475.9z"/>
<circle class="st8" cx="329.3" cy="472.9" r="42.5"/>
<path class="st9" d="M365.3,544.1h-74.1l-6.9,29.7c0,0-4.1,13.7,1,19.8s52.3,19.8,87,1c3-7.9,3.4-16.6,1-24.7c-4-13.8-1-1-1-1
	L365.3,544.1z"/>
<path class="st9" d="M366.3,544.1h-74.1l-6.9,29.7c0,0-4.1,13.7,1,19.8s52.3,19.8,87,1c3-7.9,3.4-16.6,1-24.7c-4-13.8-1-1-1-1
	L366.3,544.1z"/>
<path class="st10" d="M365.7,544.1h-74.1l-6.9,29.7c0,0-4.1,13.7,1,19.8s52.3,19.8,87,1c3-7.9,3.4-16.6,1-24.7c-4-13.8-1-1-1-1
	L365.7,544.1z"/>
<path class="st9" d="M314.3,519.5H344l0,0v28.7c0,5.4-4.4,9.8-9.9,9.8h-10c-5.4,0-9.9-4.4-9.9-9.8L314.3,519.5L314.3,519.5z"/>
<path class="st7" d="M314.3,518.4H344l0,0v28.7c0,5.4-4.4,9.8-9.9,9.8h-10c-5.4,0-9.9-4.4-9.9-9.8L314.3,518.4L314.3,518.4z"/>
<path class="st9" d="M314.4,522.6c9.6,3.6,20.1,3.6,29.7,0.1v-3.6h-29.7V522.6z"/>
<circle class="st7" cx="329.3" cy="482.1" r="42.5"/>
<path class="st8" d="M288.6,466h81.1c0,0-6.9-32.7-37.6-30.6S288.6,466,288.6,466z"/>
<ellipse class="st7" cx="287.6" cy="480.3" rx="4" ry="7.4"/>
<ellipse class="st7" cx="370.7" cy="480.3" rx="4" ry="7.4"/>
<path class="st11" d="M288.6,467.1h81.1c0,0-6.9-32.7-37.6-30.6S288.6,467.1,288.6,467.1z"/>
<g class="st0">
	
		<linearGradient id="SVGID_3_" gradientUnits="userSpaceOnUse" x1="-446.79" y1="304.1696" x2="-446.79" y2="502.5353" gradientTransform="matrix(-1 0 0 -1 -1 647.5)">
		<stop  offset="0" style="stop-color:#808080;stop-opacity:0.25"/>
		<stop  offset="0.54" style="stop-color:#808080;stop-opacity:0.12"/>
		<stop  offset="1" style="stop-color:#808080;stop-opacity:0.1"/>
	</linearGradient>
	<path class="st12" d="M346.9,243.9c0-54.6,44.2-98.9,98.8-98.9c54.6,0,98.9,44.2,98.9,98.8c0,32.9-16.4,63.7-43.7,82.1l-0.1,0.4
		c-3.2,3.1-7,5.6-11.2,7.2l-0.1-0.4c-4.6,4-24.1,10.3-46.5,10.3h-0.5c-14.2,0-29.6-2.5-43.1-9.8c0,0-0.1-0.3-0.3-0.8
		c-3.4-1.6-6.6-3.8-9.3-6.4c-0.1-0.4-0.1-0.8-0.2-1.1C362.9,306.8,346.9,276.4,346.9,243.9z"/>
</g>
<circle class="st6" cx="445.8" cy="243.9" r="95.9"/>
<path class="st13" d="M408.2,280.4c0,0-22.8,1.9-16.8,43.5c3.1,3,6.8,5.4,10.9,6.9l12.8-43.5L408.2,280.4z"/>
<path class="st13" d="M482.3,280.4c0,0,22.8,1.9,16.8,43.5c-3.1,3-6.8,5.4-10.9,6.9l-12.9-43.5L482.3,280.4z"/>
<circle class="st14" cx="445.9" cy="209.2" r="42.5"/>
<path class="st9" d="M481.9,280.4h-74.1l-6.9,29.7c0,0-4.1,13.7,1,19.8s52.3,19.8,87,1c3-7.9,3.4-16.6,1-24.7c-4-13.8-1-1-1-1
	L481.9,280.4z"/>
<path class="st9" d="M482.9,280.4h-74.1l-6.9,29.7c0,0-4.1,13.7,1,19.8s52.3,19.8,87,1c3-7.9,3.4-16.6,1-24.7c-4-13.8-1-1-1-1
	L482.9,280.4z"/>
<path class="st8" d="M482.3,280.4h-74.1l-6.9,29.7c0,0-4.1,13.7,1,19.8s52.3,19.8,87,1c3-7.9,3.4-16.6,1-24.7c-4-13.8-1-1-1-1
	L482.3,280.4z"/>
<path class="st9" d="M430.9,255.8h29.7l0,0v28.7c0,5.4-4.4,9.9-9.9,9.9l0,0h-10c-5.4,0-9.9-4.4-9.9-9.9l0,0L430.9,255.8L430.9,255.8
	L430.9,255.8z"/>
<path class="st13" d="M430.9,254.7h29.7l0,0v28.7c0,5.4-4.4,9.9-9.9,9.9l0,0h-10c-5.4,0-9.9-4.4-9.9-9.9l0,0L430.9,254.7
	L430.9,254.7z"/>
<path class="st9" d="M431,259c9.6,3.6,20.1,3.6,29.7,0.1v-3.6H431V259z"/>
<circle class="st13" cx="445.9" cy="218.4" r="42.5"/>
<path class="st14" d="M405.2,202.3h81.1c0,0-6.9-32.7-37.6-30.6C418.1,173.7,405.2,202.3,405.2,202.3z"/>
<ellipse class="st13" cx="404.2" cy="216.6" rx="4" ry="7.4"/>
<ellipse class="st13" cx="487.3" cy="216.6" rx="4" ry="7.4"/>
<path class="st9" d="M405.2,203.4h81.1c0,0-6.9-32.7-37.6-30.6C418.1,174.8,405.2,203.4,405.2,203.4z"/>
<g>
	<g class="st0">
		
			<linearGradient id="SVGID_4_" gradientUnits="userSpaceOnUse" x1="452.0416" y1="366.2172" x2="452.0416" y2="481.329" gradientTransform="matrix(0.8026 -0.4378 -0.4206 -0.771 76.5982 722.9394)">
			<stop  offset="0" style="stop-color:#808080;stop-opacity:0.25"/>
			<stop  offset="0.54" style="stop-color:#808080;stop-opacity:0.12"/>
			<stop  offset="1" style="stop-color:#808080;stop-opacity:0.1"/>
		</linearGradient>
		<path class="st15" d="M153.8,199.3l37.4,68.5l112.4-61.3c0,0,16.8,11.2,33.6,7.9c0,0-10.6-8.6-10.8-20.4l31.3-17.1l-37.4-68.5
			L153.8,199.3z"/>
	</g>
	<g>
		<path class="st2" d="M163.5,194l34.6,66l110-57.7c0,0,6.9,13.2,22.4,10.7c0,0-9-6.5-9.2-17.6l30.8-16.2l-34.6-66L163.5,194z"/>
		
			<rect x="210.5" y="172.7" transform="matrix(0.8779 -0.4789 0.4789 0.8779 -54.6609 137.4339)" class="st10" width="63.3" height="6.3"/>
		
			<rect x="213.7" y="175.8" transform="matrix(0.8779 -0.4789 0.4789 0.8779 -54.3695 144.642)" class="st10" width="85.5" height="6.3"/>
		
			<rect x="218.8" y="186.4" transform="matrix(0.8779 -0.4789 0.4789 0.8779 -59.4062 146.1196)" class="st10" width="76" height="6.3"/>
	</g>
</g>
<g class="st0">
	
		<linearGradient id="SVGID_5_" gradientUnits="userSpaceOnUse" x1="3551.927" y1="180.6917" x2="3551.927" y2="274.0506" gradientTransform="matrix(-1 0 0 -1 4073 647.5)">
		<stop  offset="0" style="stop-color:#808080;stop-opacity:0.25"/>
		<stop  offset="0.54" style="stop-color:#808080;stop-opacity:0.12"/>
		<stop  offset="1" style="stop-color:#808080;stop-opacity:0.1"/>
	</linearGradient>
	<path class="st16" d="M605.1,373.4v72.1H491.6c0,0-8.4,16.5-22.8,21.3c0,0,4.6-11.7-0.2-21.3H437v-72.1H605.1z"/>
</g>
<g>
	<path class="st2" d="M625.7,355.7v83.7H486.1c0,0,0,16.7-16.7,22.3c0,0,5.6-11.2,0-22.3h-39.1v-83.7H625.7z"/>
	<rect x="453.3" y="372.5" class="st10" width="111.7" height="11.2"/>
	<rect x="453.3" y="389.2" class="st10" width="150.7" height="11.2"/>
	<rect x="453.3" y="406" class="st10" width="134" height="11.2"/>
</g>
<g class="st0">
	<rect x="84" y="714" class="st17" width="3" height="17"/>
	<rect x="77" y="721" class="st17" width="17" height="3"/>
</g>
<g class="st0">
	<rect x="633" y="192" class="st17" width="3" height="17"/>
	<rect x="626" y="199" class="st17" width="17" height="3"/>
</g>
<g class="st0">
	<rect x="697" y="612" class="st17" width="3" height="17"/>
	<rect x="690" y="619" class="st17" width="17" height="3"/>
</g>
<g class="st0">
	<rect x="508" class="st17" width="3" height="17"/>
	<rect x="501" y="7" class="st17" width="17" height="3"/>
</g>
<path class="st18" d="M258.7,712.3c-1.7-0.8-2.6-2.7-2-4.4c0-0.1,0.1-0.3,0.1-0.4l0,0c0.1-1-0.7-1.9-1.7-2c-0.6,0-1.2,0.2-1.6,0.7
	l0,0c-0.1,0.1-0.1,0.2-0.2,0.4c-0.8,1.7-2.7,2.6-4.4,2c-0.1,0-0.3-0.1-0.4-0.1l0,0c-1-0.1-1.9,0.7-2,1.7c0,0.6,0.2,1.2,0.7,1.6l0,0
	c0.1,0.1,0.2,0.1,0.4,0.2c1.7,0.8,2.6,2.7,2,4.4c0,0.1-0.1,0.3-0.1,0.4l0,0c-0.1,1,0.7,1.9,1.7,2c0.6,0,1.2-0.2,1.6-0.7l0,0
	c0.1-0.1,0.1-0.2,0.2-0.4c0.8-1.7,2.7-2.6,4.4-2c0.1,0,0.3,0.1,0.4,0.1l0,0c1,0.1,1.9-0.7,2-1.7c0-0.6-0.2-1.2-0.7-1.6l0,0
	C258.9,712.4,258.8,712.4,258.7,712.3z"/>
<path class="st18" d="M57.9,395c-1.7-0.8-2.6-2.7-2-4.4c0-0.1,0.1-0.3,0.1-0.4l0,0c0.1-1-0.7-1.9-1.7-2c-0.6,0-1.2,0.2-1.6,0.7l0,0
	c-0.1,0.1-0.1,0.2-0.2,0.4c-0.8,1.7-2.7,2.6-4.4,2c-0.1,0-0.3-0.1-0.4-0.1l0,0c-1-0.1-1.9,0.7-2,1.7c0,0.6,0.2,1.2,0.7,1.6l0,0
	c0.1,0.1,0.2,0.1,0.4,0.2c1.7,0.8,2.6,2.7,2,4.4c0,0.1-0.1,0.3-0.1,0.4l0,0c-0.1,1,0.6,1.9,1.6,2c0.7,0.1,1.3-0.2,1.7-0.8l0,0
	c0.1-0.1,0.1-0.2,0.2-0.4c0.8-1.7,2.7-2.6,4.4-2c0.1,0,0.3,0.1,0.4,0.1l0,0c1,0.1,1.9-0.7,2-1.7c0-0.6-0.2-1.2-0.7-1.6l0,0
	C58.2,395.1,58,395,57.9,395z"/>
<path class="st18" d="M166.9,482c-1.7-0.8-2.6-2.7-2-4.4c0-0.1,0.1-0.3,0.1-0.4l0,0c0.1-1-0.7-1.9-1.7-2c-0.6,0-1.2,0.2-1.6,0.7l0,0
	c-0.1,0.1-0.1,0.2-0.2,0.4c-0.8,1.7-2.7,2.6-4.4,2c-0.1,0-0.3-0.1-0.4-0.1l0,0c-1-0.1-1.9,0.7-2,1.7c0,0.6,0.2,1.2,0.7,1.6l0,0
	c0.1,0.1,0.2,0.1,0.4,0.2c1.7,0.8,2.6,2.7,2,4.4c0,0.1-0.1,0.3-0.1,0.4l0,0c-0.1,1,0.6,1.9,1.6,2c0.7,0.1,1.3-0.2,1.7-0.8l0,0
	c0.1-0.1,0.1-0.2,0.2-0.4c0.8-1.7,2.7-2.6,4.4-2c0.1,0,0.3,0.1,0.4,0.1l0,0c1,0.1,1.9-0.7,2-1.7c0-0.6-0.2-1.2-0.7-1.6l0,0
	C167.2,482.1,167,482,166.9,482z"/>
<path class="st18" d="M788.9,718c-1.7-0.8-2.6-2.7-2-4.4c0-0.1,0.1-0.3,0.1-0.4l0,0c0.1-1-0.7-1.9-1.7-2c-0.6,0-1.2,0.2-1.6,0.7l0,0
	c-0.1,0.1-0.1,0.2-0.2,0.4c-0.8,1.7-2.7,2.6-4.4,2c-0.1,0-0.3-0.1-0.4-0.1l0,0c-1-0.1-1.9,0.7-2,1.7c0,0.6,0.2,1.2,0.7,1.6l0,0
	c0.1,0.1,0.2,0.1,0.4,0.2c1.7,0.8,2.6,2.7,2,4.4c0,0.1-0.1,0.3-0.1,0.4l0,0c-0.1,1,0.6,1.9,1.6,2c0.7,0.1,1.3-0.2,1.7-0.8l0,0
	c0.1-0.1,0.1-0.2,0.2-0.4c0.8-1.7,2.7-2.6,4.4-2c0.1,0,0.3,0.1,0.4,0.1l0,0c1,0.1,1.9-0.7,2-1.7c0-0.6-0.2-1.2-0.7-1.6l0,0
	C789.2,718.1,789,718,788.9,718z"/>
<circle class="st19" cx="6" cy="659" r="6"/>
<circle class="st18" cx="683" cy="64" r="6"/>
<circle class="st20" cx="104" cy="76" r="6"/>
<circle class="st19" cx="689" cy="346" r="6"/>
</svg>
