<?xml version="1.0" encoding="utf-8"?>
<!-- Generator: Adobe Illustrator 22.1.0, SVG Export Plug-In . SVG Version: 6.00 Build 0)  -->
<svg version="1.1" id="acbdcde3-a4fd-43c9-b2e2-23268a62f9b0"
	 xmlns="http://www.w3.org/2000/svg" xmlns:xlink="http://www.w3.org/1999/xlink" x="0px" y="0px" width="804px" height="697.7px"
	 viewBox="0 0 804 697.7" style="enable-background:new 0 0 804 697.7;" xml:space="preserve">
<style type="text/css">
	.st0{fill:#F2F2F2;}
	.st1{opacity:0.44;fill:#ED6252;}
	.st2{fill:#FFFFFF;}
	.st3{fill:#3F3D56;}
	.st4{fill:#CCCCCC;}
	.st5{opacity:0.62;fill:#ED6252;}
</style>
<path class="st0" d="M675.9,327.6c2.5,3.1,5.8,5.3,9.6,6.4c3.8,0.8,8.3-0.8,9.8-4.4c1.6-4.1-1.3-8.5-4.1-11.8s-6.1-7.1-5.5-11.4
	c4.1,4.5,10.3,6.5,16.3,5.3c1.2-0.2,2.4-0.7,3.3-1.5c2.4-2.3,1.4-6.4-0.5-9.1c-6.1-8.6-17.8-11-28.4-11.1c3.8-0.9,7.8-0.1,11.6-0.2
	s8.3-1.1,10.3-4.4c1.1-2,1.6-4.3,1.6-6.6c0.1-3.9-0.2-8.2-3.1-10.9c-3.5-3.3-9.4-2.4-13.3,0.4s-6.3,7.2-9,11.2c-1.9,3.2-4.5,6-7.7,8
	c-0.4,0.2-0.9,0.4-1.4,0.6v24.3C668.3,318,671.8,323,675.9,327.6z"/>
<path class="st0" d="M311.8,279.9c-2.5-3.1-5.8-5.4-9.5-6.5c-3.8-0.8-8.3,0.7-9.8,4.3c-1.6,4.1,1.2,8.5,4,11.8
	c2.8,3.3,6,7.2,5.4,11.4c-4.1-4.5-10.2-6.6-16.3-5.4c-1.2,0.2-2.4,0.7-3.3,1.5c-2.4,2.3-1.5,6.4,0.4,9.1c6,8.7,17.7,11.2,28.3,11.3
	c-3.8,0.9-7.8,0-11.6,0.1c-3.8,0.1-8.3,1-10.3,4.3c-1.1,2-1.6,4.3-1.7,6.6c-0.1,3.9,0.1,8.2,3,10.9c3.5,3.3,9.4,2.5,13.3-0.3
	c3.9-2.8,6.4-7.1,9.1-11.1c1.9-3.2,4.6-6,7.8-7.9c0.4-0.2,0.9-0.4,1.4-0.6l0.2-24.3C319.3,289.6,315.9,284.5,311.8,279.9z"/>
<path id="e9a96f1c-287a-42d8-bbee-a97ef2edbe89" class="st1" d="M669.8,165.3H666V60.6C666,27.1,638.9,0,605.4,0H383.6
	C350.1,0,323,27.1,323,60.6l0,0v574.3c0,33.5,27.1,60.6,60.6,60.6h221.8c33.5,0,60.6-27.1,60.6-60.6V239.8h3.8V165.3z"/>
<path id="bb6cf65b-d1a0-4b47-beae-738e5a961a87" class="st2" d="M607.8,15.8h-29c4.5,11-0.8,23.5-11.8,28c-2.6,1.1-5.3,1.6-8.1,1.6
	h-127c-11.9,0-21.5-9.6-21.5-21.5c0-2.8,0.5-5.5,1.6-8.1h-27c-25,0-45.3,20.3-45.3,45.3v573.5c0,25,20.3,45.3,45.3,45.3h222.9
	c25,0,45.3-20.3,45.3-45.3l0,0l0,0V61C653.1,36,632.8,15.8,607.8,15.8z"/>
<path class="st3" d="M429,149.5c-2.4,0-4.8-1-6.4-2.8c-2-2.3-2.9-5.2-2.5-8.2c0.2-2.8,1.4-5.4,3.3-7.5c1.9-2,4.5-3.2,7.2-3.2
	c2.6,0,5,1.1,6.7,3c1.9,2.2,2.9,5.1,2.6,8l0,0c-0.2,3-1.5,5.8-3.6,7.8C434.3,148.5,431.7,149.5,429,149.5z M430.6,131.5
	c-3.5,0-6.6,3.2-7,7.4c-0.2,2,0.3,3.9,1.6,5.4c1,1.1,2.3,1.6,3.8,1.6c3.3,0,6.9-2.3,7.3-7.4c0.2-1.9-0.4-3.8-1.7-5.3
	C433.6,132.1,432.1,131.4,430.6,131.5z M438.1,138.7L438.1,138.7z"/>
<path class="st3" d="M429.1,160.4c-10.9,0.2-19.9-8.5-20-19.4c0-0.8,0-1.6,0.1-2.4c1.2-12.1,11.3-21.3,23.4-21.5
	c6.5,0,11.9,2.1,15.5,6c3.4,3.8,5,9,4.5,14.9c-0.5,5.5-2.8,8.4-4.7,9.9c-1.7,1.4-3.8,2-6,1.7c-3-0.5-6.3-3.2-5.8-9.1l1-10.9
	c0.1-1,1-1.7,2-1.6s1.7,1,1.6,1.9l-1,10.9c-0.3,2.9,0.8,4.9,2.8,5.2c1.2,0.1,2.3-0.3,3.2-1c1.3-1,2.9-3.1,3.3-7.3
	c0.4-4.9-0.8-9.1-3.6-12.1c-2.9-3.2-7.4-4.9-12.8-4.9c-10.3,0.2-18.8,8-19.8,18.2c-1,8.8,5.4,16.8,14.2,17.8
	c0.7,0.1,1.4,0.1,2.1,0.1c2.8,0.2,5.7-0.4,8.3-1.5c0.9-0.4,2,0.1,2.4,1s0,2-1,2.4C435.7,159.9,432.4,160.5,429.1,160.4z"/>
<path class="st3" d="M578.9,563.7h-38c-3.5,0-6.3-2.8-6.3-6.3v-27.1c0-3.5,2.8-6.3,6.3-6.3h38c3.5,0,6.3,2.8,6.3,6.3v27.1
	C585.2,560.8,582.4,563.6,578.9,563.7z M540.9,527.5c-1.5,0-2.7,1.2-2.7,2.7v27.1c0,1.5,1.2,2.7,2.7,2.7h38c1.5,0,2.7-1.2,2.7-2.7
	v-27.1c0-1.5-1.2-2.7-2.7-2.7H540.9z"/>
<path class="st3" d="M559.9,547.4c-0.4,0-0.8-0.1-1.1-0.4l-16.3-12.7c-0.8-0.6-0.9-1.7-0.3-2.5s1.7-0.9,2.5-0.3l0,0l15.2,11.8
	l15.2-11.8c0.8-0.6,1.9-0.5,2.5,0.3s0.5,1.9-0.3,2.5l0,0L561,547C560.7,547.2,560.3,547.4,559.9,547.4z"/>
<path class="st4" d="M747.1,588.7l-192.5,0.1c-0.6,0-0.9-0.4-0.9-1s0.4-1,0.9-1l192.5-0.1c0.6,0,0.9,0.4,0.9,1
	S747.7,588.7,747.1,588.7z"/>
<circle class="st5" cx="761.1" cy="587.7" r="14"/>
<path class="st4" d="M231,183.7l198.4,0.1c0.6,0,0.9-0.4,0.9-1s-0.4-1-0.9-1L231,181.7c-0.6,0-0.9,0.4-0.9,1S230.5,183.7,231,183.7
	L231,183.7z"/>
<circle class="st5" cx="216.1" cy="183.7" r="14"/>
<path class="st4" d="M559.9,588.8c-24.9,0-45-20.1-45-45s20.1-45,45-45s45,20.1,45,45l0,0C604.9,568.6,584.8,588.7,559.9,588.8z
	 M559.9,500.8c-23.7,0-43,19.3-43,43s19.3,43,43,43s43-19.3,43-43C602.9,520,583.6,500.8,559.9,500.8z"/>
<path class="st4" d="M430.9,183.7c-24.9,0-45-20.1-45-45s20.1-45,45-45s45,20.1,45,45l0,0C475.9,163.5,455.8,183.7,430.9,183.7z
	 M430.9,95.7c-23.7,0-43,19.3-43,43s19.3,43,43,43s43-19.3,43-43C473.9,114.9,454.6,95.7,430.9,95.7L430.9,95.7z"/>
<g>
	<path class="st4" d="M370.4,526.8l1.5-198.4c0-0.6,0.5-0.9,1-0.9c0.6,0,1,0.5,1,0.9l-1.5,198.4c0,0.6-0.5,0.9-1,0.9
		C370.8,527.7,370.4,527.2,370.4,526.8z"/>
	<circle class="st5" cx="370.3" cy="541.7" r="14"/>
	<path class="st4" d="M371.8,331.5c0.2-24.9,20.5-44.9,45.3-44.7c24.9,0.2,44.9,20.5,44.7,45.3c-0.2,24.9-20.5,44.9-45.3,44.7
		C391.6,376.7,371.6,356.4,371.8,331.5z M459.8,332.2c0.2-23.7-18.9-43.1-42.7-43.3c-23.7-0.2-43.1,18.9-43.3,42.7
		c-0.2,23.7,18.9,43.1,42.7,43.3C440.2,375,459.6,355.9,459.8,332.2z"/>
	<path class="st3" d="M390.5,317.2c0-1.5,1.2-2.7,2.8-2.7c0.4,0,0.7,0.1,1.1,0.2l7,3.2c8.7-9.6,23.5-10.4,33.1-1.7
		s10.4,23.5,1.7,33.1c-8.7,9.6-23.5,10.4-33.1,1.7c-6.8-6.1-9.4-15.5-6.7-24.2l-5.3-8C390.6,318.2,390.4,317.7,390.5,317.2z
		 M438.6,333.7c0.1-11.1-8.8-20.1-19.9-20.2c-6.1,0-11.9,2.7-15.8,7.5l-0.8,1l-7.5-3.4l5.2,7.8l-0.3,0.8c-3.6,10.5,2,21.9,12.4,25.5
		c10.5,3.6,21.9-2,25.5-12.4C438.2,338,438.6,335.8,438.6,333.7L438.6,333.7z"/>
	<ellipse class="st3" cx="419.6" cy="333.5" rx="3.3" ry="3.3"/>
	<ellipse class="st3" cx="419.7" cy="324.3" rx="3.3" ry="3.3"/>
	<ellipse class="st3" cx="419.5" cy="342.7" rx="3.3" ry="3.3"/>
</g>
</svg>
