																					<?xml version="1.0" encoding="utf-8"?>
<!-- Generator: Adobe Illustrator 22.1.0, SVG Export Plug-In . SVG Version: 6.00 Build 0)  -->
<svg version="1.1" id="Layer_1" xmlns="http://www.w3.org/2000/svg" xmlns:xlink="http://www.w3.org/1999/xlink" x="0px" y="0px"
	 width="1000px" height="500px" viewBox="0 0 1000 500" style="enable-background:new 0 0 1000 500;" xml:space="preserve">
<style type="text/css">
	.st0{fill:#C6E3F6;}
	.st1{fill:#403E56;}
	.st2{fill:url(#SVGID_1_);}
	.st3{fill:#FFFFFF;}
	.st4{fill:url(#SVGID_2_);}
	.st5{fill:url(#SVGID_3_);}
	.st6{fill:#6466AF;}
	.st7{opacity:0.3;fill:#6466AF;enable-background:new    ;}
	.st8{opacity:0.13;fill:url(#SVGID_4_);}
	.st9{opacity:0.13;fill:url(#SVGID_5_);}
	.st10{fill:#5BBF8C;}
	.st11{opacity:0.33;fill:#FFFFFF;}
	.st12{opacity:0.24;fill:#FFFFFF;}
	.st13{fill:none;}
	.st14{fill:#66C29B;}
</style>
<rect class="st0" width="1000" height="500"/>
<g>
	<path class="st1" d="M771,93.5C771,93.5,771,93.5,771,93.5H561.6h-95H256.2c-7.8,0-14.2,6.3-14.2,14.2v0v286.9
		c0,7.8,6.3,14.2,14.2,14.2H771c7.8,0,14.2-6.3,14.2-14.2V107.7C785.2,99.8,778.9,93.5,771,93.5z"/>
</g>
<g>
	
		<linearGradient id="SVGID_1_" gradientUnits="userSpaceOnUse" x1="513.4249" y1="149.6369" x2="513.4249" y2="368.2767" gradientTransform="matrix(1 0 0 -1 0 502)">
		<stop  offset="0" style="stop-color:#818181;stop-opacity:0.25"/>
		<stop  offset="0.54" style="stop-color:#818181;stop-opacity:0.12"/>
		<stop  offset="1" style="stop-color:#818181;stop-opacity:0.1"/>
	</linearGradient>
	<polygon class="st2" points="641.1,133.7 385.8,133.7 385.8,320.5 550.5,320.5 566,352.4 584.1,320.5 641.1,320.5 	"/>
	<polygon class="st3" points="639.1,136.6 388.2,136.6 388.2,317.6 551,317.6 566.1,350.1 583.1,317.6 639.1,317.6 	"/>
	<g>
		
			<linearGradient id="SVGID_2_" gradientUnits="userSpaceOnUse" x1="471.1402" y1="234.6626" x2="471.1402" y2="271.1543" gradientTransform="matrix(1 0 0 -1 0 502)">
			<stop  offset="0" style="stop-color:#818181;stop-opacity:0.25"/>
			<stop  offset="0.54" style="stop-color:#818181;stop-opacity:0.12"/>
			<stop  offset="1" style="stop-color:#818181;stop-opacity:0.1"/>
		</linearGradient>
		<circle class="st4" cx="471.1" cy="249.1" r="18.2"/>
		
			<linearGradient id="SVGID_3_" gradientUnits="userSpaceOnUse" x1="562.1194" y1="234.6626" x2="562.1194" y2="271.1543" gradientTransform="matrix(1 0 0 -1 0 502)">
			<stop  offset="0" style="stop-color:#818181;stop-opacity:0.25"/>
			<stop  offset="0.54" style="stop-color:#818181;stop-opacity:0.12"/>
			<stop  offset="1" style="stop-color:#818181;stop-opacity:0.1"/>
		</linearGradient>
		<circle class="st5" cx="562.1" cy="249.1" r="18.2"/>
		<circle class="st6" cx="471.1" cy="249.1" r="16.5"/>
		<circle class="st7" cx="562.1" cy="249.1" r="16.5"/>
	</g>
</g>
<g>
	
		<linearGradient id="SVGID_4_" gradientUnits="userSpaceOnUse" x1="264.5222" y1="250.1071" x2="384.2073" y2="250.1071" gradientTransform="matrix(-1 0 0 -1 876.9746 465.5883)">
		<stop  offset="0" style="stop-color:#2484C6"/>
		<stop  offset="1" style="stop-color:#2484C6;stop-opacity:0"/>
	</linearGradient>
	<path class="st8" d="M493.3,244.9c0-55,83.8-38.5,58-87c-31.8-59.5,52.6,26.8,60.1,87c6.8,54.6-17.7,47.8-72.3,47.8
		C484.5,292.7,493.3,299.9,493.3,244.9z"/>
	
		<linearGradient id="SVGID_5_" gradientUnits="userSpaceOnUse" x1="414.3966" y1="250.107" x2="534.0817" y2="250.107" gradientTransform="matrix(1 0 0 -1 8.003786e-04 465.5883)">
		<stop  offset="0" style="stop-color:#2484C6"/>
		<stop  offset="1" style="stop-color:#2484C6;stop-opacity:0"/>
	</linearGradient>
	<path class="st9" d="M533.6,244.9c0-55-83.8-38.5-58-87c31.8-59.5-52.6,26.8-60.1,87c-6.8,54.6,17.7,47.8,72.3,47.8
		S533.6,299.9,533.6,244.9z"/>
</g>
<line class="st10" x1="242" y1="233" x2="242" y2="104.1"/>
<path class="st11" d="M212.5,261.5c0,0,318.5,66.9,415.9,29.7S837.8,92,837.8,92L356.5,56.5L164.1,69.2L212.5,261.5z"/>
<g>
	<path class="st12" d="M785.2,116.9v203.5L696.6,190l58.9-94.9C785.1,95.6,785.2,116.6,785.2,116.9z"/>
</g>
<polygon class="st13" points="242,248.5 242,94.6 418.8,94.6 785.2,94 785.2,191.4 947.5,39 665,11.2 234,5.7 121.3,31.1 "/>
<path class="st10" d="M242,358"/>
<g>
	<path class="st12" d="M334,176.8l-92.2,144.9l-0.8-1.3V102.1c0,0,1.1-6.9,10.4-9c4.8-1.1,16.4-1.2,26.3-1L334,176.8z"/>
</g>
<polygon class="st0" points="242,293 242,112.7 242,105.5 242,94.6 250.7,94.5 256.8,94.5 862.6,93.1 841.2,20 154.7,35 
	176.1,281.9 "/>
<path class="st0" d="M242,109.8c0,0-1.1-18.1,16.9-15.2l-1-6.1h-28.3l3.9,21.4H242z"/>
<polygon class="st0" points="785.2,160.8 785.2,115.7 859,117.6 "/>
<polygon class="st0" points="798.5,89.1 850.7,92.4 821,123.1 785.2,115.7 "/>
<g>
	<circle class="st14" cx="776.1" cy="94.6" r="23"/>
	<path class="st3" d="M775.4,107.5c-0.2-0.2-0.3-0.4-0.3-0.7V81.3c0-0.6,0.4-1,1-1c0.6,0,1,0.4,1,1c0,0,0,0,0,0v25.5
		c0,0.6-0.4,1-1,1C775.9,107.8,775.6,107.7,775.4,107.5z"/>
	<path class="st3" d="M762.7,94.8c-0.4-0.4-0.4-1,0-1.4c0.2-0.2,0.4-0.3,0.7-0.3h25.5c0.6,0,1,0.4,1,1c0,0.6-0.4,1-1,1h-25.5
		C763.1,95.1,762.9,95,762.7,94.8z"/>
</g>
<polygon class="st0" points="237.8,292.3 242,292.3 242,421.7 "/>
</svg>
